<mxfile host="app.diagrams.net" modified="2021-10-10T15:47:12.464Z" agent="5.0 (Windows NT 10.0; Win64; x64) AppleWebKit/537.36 (KHTML, like Gecko) Chrome/94.0.4606.81 Safari/537.36" etag="QsWEae3aOwJ6FXvMK99V" version="15.5.0" type="github">
  <diagram id="-JG7Txu0DK5-Xhey4MnM" name="Page-1">
    <mxGraphModel dx="1422" dy="786" grid="1" gridSize="10" guides="1" tooltips="1" connect="1" arrows="1" fold="1" page="1" pageScale="1" pageWidth="827" pageHeight="1169" math="0" shadow="0">
      <root>
        <mxCell id="0" />
        <mxCell id="1" parent="0" />
        <mxCell id="ysH4_pA1c9GqVPpLG9Pp-1" value="" style="whiteSpace=wrap;html=1;rounded=1;imageAspect=1;" parent="1" vertex="1">
          <mxGeometry x="281" y="80" width="350" height="940" as="geometry" />
        </mxCell>
        <mxCell id="GeJTeXuIoCjIr-xAFSPv-11" style="rounded=0;orthogonalLoop=1;jettySize=auto;html=1;exitX=1;exitY=0.3333333333333333;exitDx=0;exitDy=0;exitPerimeter=0;entryX=0;entryY=0.5;entryDx=0;entryDy=0;endArrow=none;endFill=0;" parent="1" source="ETKNKPYpxQJcBR0h2Ky9-1" target="DozMbugxacGF-HmCCZbO-14" edge="1">
          <mxGeometry relative="1" as="geometry" />
        </mxCell>
        <mxCell id="GeJTeXuIoCjIr-xAFSPv-33" style="edgeStyle=none;rounded=0;orthogonalLoop=1;jettySize=auto;html=1;exitX=1;exitY=0.3333333333333333;exitDx=0;exitDy=0;exitPerimeter=0;entryX=0;entryY=0.5;entryDx=0;entryDy=0;endArrow=none;endFill=0;" parent="1" source="ETKNKPYpxQJcBR0h2Ky9-1" target="GeJTeXuIoCjIr-xAFSPv-16" edge="1">
          <mxGeometry relative="1" as="geometry" />
        </mxCell>
        <mxCell id="GeJTeXuIoCjIr-xAFSPv-43" style="edgeStyle=none;rounded=0;orthogonalLoop=1;jettySize=auto;html=1;exitX=1;exitY=0.3333333333333333;exitDx=0;exitDy=0;exitPerimeter=0;entryX=0;entryY=0.5;entryDx=0;entryDy=0;endArrow=none;endFill=0;" parent="1" source="ETKNKPYpxQJcBR0h2Ky9-1" target="GeJTeXuIoCjIr-xAFSPv-14" edge="1">
          <mxGeometry relative="1" as="geometry" />
        </mxCell>
        <mxCell id="ETKNKPYpxQJcBR0h2Ky9-1" value="Registered User" style="shape=umlActor;verticalLabelPosition=bottom;verticalAlign=top;html=1;outlineConnect=0;" parent="1" vertex="1">
          <mxGeometry x="70" y="320" width="30" height="60" as="geometry" />
        </mxCell>
        <mxCell id="GeJTeXuIoCjIr-xAFSPv-59" style="edgeStyle=none;rounded=0;orthogonalLoop=1;jettySize=auto;html=1;exitX=1;exitY=0.5;exitDx=0;exitDy=0;dashed=1;endArrow=classic;endFill=1;" parent="1" source="DozMbugxacGF-HmCCZbO-1" target="GeJTeXuIoCjIr-xAFSPv-57" edge="1">
          <mxGeometry relative="1" as="geometry" />
        </mxCell>
        <mxCell id="DozMbugxacGF-HmCCZbO-1" value="Local Login" style="ellipse;whiteSpace=wrap;html=1;" parent="1" vertex="1">
          <mxGeometry x="316" y="230" width="100" height="60" as="geometry" />
        </mxCell>
        <mxCell id="cGa_y_yXtvTN1m9Yh7HD-2" value="Right posture" style="text;html=1;strokeColor=none;fillColor=none;align=center;verticalAlign=middle;whiteSpace=wrap;rounded=0;" parent="1" vertex="1">
          <mxGeometry x="301" y="90" width="310" height="20" as="geometry" />
        </mxCell>
        <mxCell id="GeJTeXuIoCjIr-xAFSPv-60" style="edgeStyle=none;rounded=0;orthogonalLoop=1;jettySize=auto;html=1;exitX=1;exitY=0.5;exitDx=0;exitDy=0;dashed=1;endArrow=classic;endFill=1;" parent="1" source="DozMbugxacGF-HmCCZbO-2" target="GeJTeXuIoCjIr-xAFSPv-56" edge="1">
          <mxGeometry relative="1" as="geometry" />
        </mxCell>
        <mxCell id="DozMbugxacGF-HmCCZbO-2" value="&lt;span&gt;Register&lt;/span&gt;" style="ellipse;whiteSpace=wrap;html=1;" parent="1" vertex="1">
          <mxGeometry x="316" y="150" width="100" height="60" as="geometry" />
        </mxCell>
        <mxCell id="GeJTeXuIoCjIr-xAFSPv-50" style="edgeStyle=none;rounded=0;orthogonalLoop=1;jettySize=auto;html=1;exitX=1;exitY=0.5;exitDx=0;exitDy=0;entryX=0;entryY=0.5;entryDx=0;entryDy=0;dashed=1;endArrow=classic;endFill=1;" parent="1" source="DozMbugxacGF-HmCCZbO-4" target="GeJTeXuIoCjIr-xAFSPv-47" edge="1">
          <mxGeometry relative="1" as="geometry" />
        </mxCell>
        <mxCell id="GeJTeXuIoCjIr-xAFSPv-51" style="edgeStyle=none;rounded=0;orthogonalLoop=1;jettySize=auto;html=1;exitX=1;exitY=0.5;exitDx=0;exitDy=0;entryX=0;entryY=0.5;entryDx=0;entryDy=0;dashed=1;endArrow=classic;endFill=1;" parent="1" source="DozMbugxacGF-HmCCZbO-4" target="GeJTeXuIoCjIr-xAFSPv-48" edge="1">
          <mxGeometry relative="1" as="geometry" />
        </mxCell>
        <mxCell id="DozMbugxacGF-HmCCZbO-4" value="Setting" style="ellipse;whiteSpace=wrap;html=1;" parent="1" vertex="1">
          <mxGeometry x="316" y="460" width="100" height="60" as="geometry" />
        </mxCell>
        <mxCell id="DozMbugxacGF-HmCCZbO-7" value="Status" style="ellipse;whiteSpace=wrap;html=1;" parent="1" vertex="1">
          <mxGeometry x="316" y="390" width="100" height="60" as="geometry" />
        </mxCell>
        <mxCell id="DozMbugxacGF-HmCCZbO-9" style="rounded=0;orthogonalLoop=1;jettySize=auto;html=1;exitX=1;exitY=0.3333333333333333;exitDx=0;exitDy=0;exitPerimeter=0;endArrow=none;endFill=0;" parent="1" source="ETKNKPYpxQJcBR0h2Ky9-1" target="DozMbugxacGF-HmCCZbO-1" edge="1">
          <mxGeometry relative="1" as="geometry" />
        </mxCell>
        <mxCell id="DozMbugxacGF-HmCCZbO-11" style="rounded=0;orthogonalLoop=1;jettySize=auto;html=1;exitX=1;exitY=0.3333333333333333;exitDx=0;exitDy=0;exitPerimeter=0;entryX=0;entryY=0.5;entryDx=0;entryDy=0;endArrow=none;endFill=0;" parent="1" source="ETKNKPYpxQJcBR0h2Ky9-1" target="DozMbugxacGF-HmCCZbO-4" edge="1">
          <mxGeometry relative="1" as="geometry" />
        </mxCell>
        <mxCell id="DozMbugxacGF-HmCCZbO-13" style="rounded=0;orthogonalLoop=1;jettySize=auto;html=1;exitX=1;exitY=0.3333333333333333;exitDx=0;exitDy=0;exitPerimeter=0;entryX=0;entryY=0.5;entryDx=0;entryDy=0;endArrow=none;endFill=0;" parent="1" source="ETKNKPYpxQJcBR0h2Ky9-1" target="DozMbugxacGF-HmCCZbO-7" edge="1">
          <mxGeometry relative="1" as="geometry" />
        </mxCell>
        <mxCell id="DozMbugxacGF-HmCCZbO-14" value="Status history" style="ellipse;whiteSpace=wrap;html=1;" parent="1" vertex="1">
          <mxGeometry x="316" y="550" width="100" height="60" as="geometry" />
        </mxCell>
        <mxCell id="GeJTeXuIoCjIr-xAFSPv-7" style="rounded=0;orthogonalLoop=1;jettySize=auto;html=1;entryX=0;entryY=0.5;entryDx=0;entryDy=0;exitX=1;exitY=0.3333333333333333;exitDx=0;exitDy=0;exitPerimeter=0;endArrow=none;endFill=0;" parent="1" source="GeJTeXuIoCjIr-xAFSPv-2" target="DozMbugxacGF-HmCCZbO-4" edge="1">
          <mxGeometry relative="1" as="geometry" />
        </mxCell>
        <mxCell id="GeJTeXuIoCjIr-xAFSPv-8" style="rounded=0;orthogonalLoop=1;jettySize=auto;html=1;entryX=0;entryY=0.5;entryDx=0;entryDy=0;exitX=1;exitY=0.3333333333333333;exitDx=0;exitDy=0;exitPerimeter=0;endArrow=none;endFill=0;" parent="1" source="GeJTeXuIoCjIr-xAFSPv-2" target="DozMbugxacGF-HmCCZbO-7" edge="1">
          <mxGeometry relative="1" as="geometry" />
        </mxCell>
        <mxCell id="GeJTeXuIoCjIr-xAFSPv-34" style="edgeStyle=none;rounded=0;orthogonalLoop=1;jettySize=auto;html=1;exitX=1;exitY=0.3333333333333333;exitDx=0;exitDy=0;exitPerimeter=0;entryX=0;entryY=0.5;entryDx=0;entryDy=0;endArrow=none;endFill=0;" parent="1" source="GeJTeXuIoCjIr-xAFSPv-2" target="GeJTeXuIoCjIr-xAFSPv-16" edge="1">
          <mxGeometry relative="1" as="geometry" />
        </mxCell>
        <mxCell id="GeJTeXuIoCjIr-xAFSPv-44" style="edgeStyle=none;rounded=0;orthogonalLoop=1;jettySize=auto;html=1;exitX=1;exitY=0.3333333333333333;exitDx=0;exitDy=0;exitPerimeter=0;entryX=0;entryY=0.5;entryDx=0;entryDy=0;endArrow=none;endFill=0;" parent="1" source="GeJTeXuIoCjIr-xAFSPv-2" target="GeJTeXuIoCjIr-xAFSPv-14" edge="1">
          <mxGeometry relative="1" as="geometry" />
        </mxCell>
        <mxCell id="GeJTeXuIoCjIr-xAFSPv-2" value="Guest User" style="shape=umlActor;verticalLabelPosition=bottom;verticalAlign=top;html=1;outlineConnect=0;" parent="1" vertex="1">
          <mxGeometry x="70" y="480" width="30" height="60" as="geometry" />
        </mxCell>
        <mxCell id="GeJTeXuIoCjIr-xAFSPv-12" style="rounded=0;orthogonalLoop=1;jettySize=auto;html=1;exitX=1;exitY=0.3333333333333333;exitDx=0;exitDy=0;exitPerimeter=0;entryX=0;entryY=0.5;entryDx=0;entryDy=0;endArrow=none;endFill=0;" parent="1" source="GeJTeXuIoCjIr-xAFSPv-4" target="DozMbugxacGF-HmCCZbO-2" edge="1">
          <mxGeometry relative="1" as="geometry" />
        </mxCell>
        <mxCell id="GeJTeXuIoCjIr-xAFSPv-4" value="New User" style="shape=umlActor;verticalLabelPosition=bottom;verticalAlign=top;html=1;outlineConnect=0;" parent="1" vertex="1">
          <mxGeometry x="70" y="160" width="30" height="60" as="geometry" />
        </mxCell>
        <mxCell id="GeJTeXuIoCjIr-xAFSPv-23" style="edgeStyle=none;rounded=0;orthogonalLoop=1;jettySize=auto;html=1;endArrow=classic;endFill=1;dashed=1;" parent="1" source="GeJTeXuIoCjIr-xAFSPv-14" target="GeJTeXuIoCjIr-xAFSPv-22" edge="1">
          <mxGeometry relative="1" as="geometry">
            <Array as="points">
              <mxPoint x="366" y="740" />
            </Array>
          </mxGeometry>
        </mxCell>
        <mxCell id="GeJTeXuIoCjIr-xAFSPv-14" value="Start capturing" style="ellipse;whiteSpace=wrap;html=1;" parent="1" vertex="1">
          <mxGeometry x="316" y="640" width="100" height="60" as="geometry" />
        </mxCell>
        <mxCell id="GeJTeXuIoCjIr-xAFSPv-30" style="edgeStyle=none;rounded=0;orthogonalLoop=1;jettySize=auto;html=1;exitX=1;exitY=0.5;exitDx=0;exitDy=0;entryX=0;entryY=0.5;entryDx=0;entryDy=0;endArrow=classic;endFill=1;dashed=1;" parent="1" source="GeJTeXuIoCjIr-xAFSPv-16" target="GeJTeXuIoCjIr-xAFSPv-28" edge="1">
          <mxGeometry relative="1" as="geometry" />
        </mxCell>
        <mxCell id="GeJTeXuIoCjIr-xAFSPv-31" style="edgeStyle=none;rounded=0;orthogonalLoop=1;jettySize=auto;html=1;exitX=1;exitY=0.5;exitDx=0;exitDy=0;entryX=0;entryY=0.5;entryDx=0;entryDy=0;endArrow=classic;endFill=1;dashed=1;" parent="1" source="GeJTeXuIoCjIr-xAFSPv-16" target="GeJTeXuIoCjIr-xAFSPv-21" edge="1">
          <mxGeometry relative="1" as="geometry" />
        </mxCell>
        <mxCell id="GeJTeXuIoCjIr-xAFSPv-32" style="edgeStyle=none;rounded=0;orthogonalLoop=1;jettySize=auto;html=1;exitX=1;exitY=0.5;exitDx=0;exitDy=0;entryX=0;entryY=0.5;entryDx=0;entryDy=0;endArrow=classic;endFill=1;dashed=1;" parent="1" source="GeJTeXuIoCjIr-xAFSPv-16" target="GeJTeXuIoCjIr-xAFSPv-17" edge="1">
          <mxGeometry relative="1" as="geometry" />
        </mxCell>
        <mxCell id="GeJTeXuIoCjIr-xAFSPv-41" style="edgeStyle=none;rounded=0;orthogonalLoop=1;jettySize=auto;html=1;exitX=0.5;exitY=0;exitDx=0;exitDy=0;endArrow=none;endFill=0;dashed=1;startArrow=classic;startFill=1;" parent="1" source="GeJTeXuIoCjIr-xAFSPv-16" target="GeJTeXuIoCjIr-xAFSPv-22" edge="1">
          <mxGeometry relative="1" as="geometry" />
        </mxCell>
        <mxCell id="GeJTeXuIoCjIr-xAFSPv-16" value="Notification" style="ellipse;whiteSpace=wrap;html=1;" parent="1" vertex="1">
          <mxGeometry x="316" y="870" width="100" height="60" as="geometry" />
        </mxCell>
        <mxCell id="GeJTeXuIoCjIr-xAFSPv-17" value="Wrong posture" style="ellipse;whiteSpace=wrap;html=1;" parent="1" vertex="1">
          <mxGeometry x="506" y="760" width="100" height="60" as="geometry" />
        </mxCell>
        <mxCell id="GeJTeXuIoCjIr-xAFSPv-21" value="Sit to long" style="ellipse;whiteSpace=wrap;html=1;" parent="1" vertex="1">
          <mxGeometry x="506" y="840" width="100" height="60" as="geometry" />
        </mxCell>
        <mxCell id="GeJTeXuIoCjIr-xAFSPv-22" value="Detect posture" style="ellipse;whiteSpace=wrap;html=1;" parent="1" vertex="1">
          <mxGeometry x="316" y="770" width="100" height="60" as="geometry" />
        </mxCell>
        <mxCell id="GeJTeXuIoCjIr-xAFSPv-28" value="Eye dry" style="ellipse;whiteSpace=wrap;html=1;" parent="1" vertex="1">
          <mxGeometry x="506" y="930" width="100" height="60" as="geometry" />
        </mxCell>
        <mxCell id="GeJTeXuIoCjIr-xAFSPv-37" value="&amp;lt;&amp;lt;include&amp;gt;&amp;gt;" style="edgeLabel;html=1;align=center;verticalAlign=middle;resizable=0;points=[];" parent="1" vertex="1" connectable="0">
          <mxGeometry x="485.9975951460559" y="690.0045681861462" as="geometry">
            <mxPoint x="-118" y="41" as="offset" />
          </mxGeometry>
        </mxCell>
        <mxCell id="GeJTeXuIoCjIr-xAFSPv-38" value="&amp;lt;&amp;lt;include&amp;gt;&amp;gt;" style="edgeLabel;html=1;align=center;verticalAlign=middle;resizable=0;points=[];" parent="1" vertex="1" connectable="0">
          <mxGeometry x="585.9975951460559" y="890.0045681861462" as="geometry">
            <mxPoint x="-118" y="41" as="offset" />
          </mxGeometry>
        </mxCell>
        <mxCell id="GeJTeXuIoCjIr-xAFSPv-39" value="&amp;lt;&amp;lt;include&amp;gt;&amp;gt;" style="edgeLabel;html=1;align=center;verticalAlign=middle;resizable=0;points=[];" parent="1" vertex="1" connectable="0">
          <mxGeometry x="585.9975951460559" y="800.0045681861462" as="geometry">
            <mxPoint x="-118" y="41" as="offset" />
          </mxGeometry>
        </mxCell>
        <mxCell id="GeJTeXuIoCjIr-xAFSPv-40" value="&amp;lt;&amp;lt;include&amp;gt;&amp;gt;" style="edgeLabel;html=1;align=center;verticalAlign=middle;resizable=0;points=[];" parent="1" vertex="1" connectable="0">
          <mxGeometry x="585.9975951460559" y="840.0045681861462" as="geometry">
            <mxPoint x="-118" y="41" as="offset" />
          </mxGeometry>
        </mxCell>
        <mxCell id="GeJTeXuIoCjIr-xAFSPv-42" value="&amp;lt;&amp;lt;extend&amp;gt;&amp;gt;" style="edgeLabel;html=1;align=center;verticalAlign=middle;resizable=0;points=[];" parent="1" vertex="1" connectable="0">
          <mxGeometry x="485.9975951460559" y="810.0045681861462" as="geometry">
            <mxPoint x="-118" y="41" as="offset" />
          </mxGeometry>
        </mxCell>
        <mxCell id="GeJTeXuIoCjIr-xAFSPv-47" value="Calibrate Camera" style="ellipse;whiteSpace=wrap;html=1;" parent="1" vertex="1">
          <mxGeometry x="506" y="410" width="100" height="60" as="geometry" />
        </mxCell>
        <mxCell id="GeJTeXuIoCjIr-xAFSPv-48" value="Set notification" style="ellipse;whiteSpace=wrap;html=1;" parent="1" vertex="1">
          <mxGeometry x="506" y="510" width="100" height="60" as="geometry" />
        </mxCell>
        <mxCell id="GeJTeXuIoCjIr-xAFSPv-53" value="&amp;lt;&amp;lt;include&amp;gt;&amp;gt;" style="edgeLabel;html=1;align=center;verticalAlign=middle;resizable=0;points=[];" parent="1" vertex="1" connectable="0">
          <mxGeometry x="585.9975951460559" y="420.00456818614623" as="geometry">
            <mxPoint x="-118" y="41" as="offset" />
          </mxGeometry>
        </mxCell>
        <mxCell id="GeJTeXuIoCjIr-xAFSPv-54" value="&amp;lt;&amp;lt;include&amp;gt;&amp;gt;" style="edgeLabel;html=1;align=center;verticalAlign=middle;resizable=0;points=[];" parent="1" vertex="1" connectable="0">
          <mxGeometry x="585.9975951460559" y="480.00456818614623" as="geometry">
            <mxPoint x="-118" y="41" as="offset" />
          </mxGeometry>
        </mxCell>
        <mxCell id="GeJTeXuIoCjIr-xAFSPv-56" value="&lt;span&gt;Update user table&lt;/span&gt;" style="ellipse;whiteSpace=wrap;html=1;" parent="1" vertex="1">
          <mxGeometry x="506" y="150" width="100" height="60" as="geometry" />
        </mxCell>
        <mxCell id="GeJTeXuIoCjIr-xAFSPv-57" value="Authenticate in user table" style="ellipse;whiteSpace=wrap;html=1;" parent="1" vertex="1">
          <mxGeometry x="506" y="230" width="100" height="60" as="geometry" />
        </mxCell>
        <mxCell id="GeJTeXuIoCjIr-xAFSPv-61" value="&amp;lt;&amp;lt;include&amp;gt;&amp;gt;" style="edgeLabel;html=1;align=center;verticalAlign=middle;resizable=0;points=[];" parent="1" vertex="1" connectable="0">
          <mxGeometry x="575.9975951460559" y="130.00456818614623" as="geometry">
            <mxPoint x="-118" y="41" as="offset" />
          </mxGeometry>
        </mxCell>
        <mxCell id="GeJTeXuIoCjIr-xAFSPv-62" value="&amp;lt;&amp;lt;include&amp;gt;&amp;gt;" style="edgeLabel;html=1;align=center;verticalAlign=middle;resizable=0;points=[];" parent="1" vertex="1" connectable="0">
          <mxGeometry x="575.9975951460559" y="210.00456818614623" as="geometry">
            <mxPoint x="-118" y="41" as="offset" />
          </mxGeometry>
        </mxCell>
        <mxCell id="hQwvP1w6b38e1i3ikuPx-2" value="Oauth" style="shape=umlActor;verticalLabelPosition=bottom;verticalAlign=top;html=1;outlineConnect=0;" parent="1" vertex="1">
          <mxGeometry x="741" y="320" width="30" height="60" as="geometry" />
        </mxCell>
        <mxCell id="hQwvP1w6b38e1i3ikuPx-8" style="rounded=0;orthogonalLoop=1;jettySize=auto;html=1;exitX=1;exitY=0.5;exitDx=0;exitDy=0;entryX=0;entryY=0.3333333333333333;entryDx=0;entryDy=0;entryPerimeter=0;endArrow=none;endFill=0;" parent="1" source="hQwvP1w6b38e1i3ikuPx-4" target="hQwvP1w6b38e1i3ikuPx-2" edge="1">
          <mxGeometry relative="1" as="geometry" />
        </mxCell>
        <mxCell id="hQwvP1w6b38e1i3ikuPx-4" value="Social Login" style="ellipse;whiteSpace=wrap;html=1;" parent="1" vertex="1">
          <mxGeometry x="414" y="310" width="100" height="60" as="geometry" />
        </mxCell>
        <mxCell id="hQwvP1w6b38e1i3ikuPx-7" style="rounded=0;orthogonalLoop=1;jettySize=auto;html=1;entryX=0;entryY=0.5;entryDx=0;entryDy=0;endArrow=none;endFill=0;exitX=1;exitY=0.3333333333333333;exitDx=0;exitDy=0;exitPerimeter=0;" parent="1" source="ETKNKPYpxQJcBR0h2Ky9-1" target="hQwvP1w6b38e1i3ikuPx-4" edge="1">
          <mxGeometry relative="1" as="geometry">
            <mxPoint x="110" y="360" as="sourcePoint" />
            <mxPoint x="326" y="430" as="targetPoint" />
          </mxGeometry>
        </mxCell>
        <mxCell id="hQwvP1w6b38e1i3ikuPx-10" style="edgeStyle=none;rounded=0;orthogonalLoop=1;jettySize=auto;html=1;exitX=0.5;exitY=1;exitDx=0;exitDy=0;" parent="1" source="ysH4_pA1c9GqVPpLG9Pp-1" target="ysH4_pA1c9GqVPpLG9Pp-1" edge="1">
          <mxGeometry relative="1" as="geometry" />
        </mxCell>
      </root>
    </mxGraphModel>
  </diagram>
</mxfile>
